<svg width="379" height="71" viewBox="0 0 379 71" fill="none" xmlns="http://www.w3.org/2000/svg">
<path d="M36.2578 7.46484C34.6406 7.53516 33.4688 7.72266 32.7422 8.02734C32.0156 8.33203 31.5234 8.89453 31.2656 9.71484C31.0078 10.5352 30.8789 11.8477 30.8789 13.6523V40.0195V44.3086C30.8789 47.5195 30.7969 50.3086 30.6328 52.6758C30.4922 55.043 30.1641 57.082 29.6484 58.793C28.9922 61.043 27.832 63.0469 26.168 64.8047C24.5273 66.5859 22.4414 67.9805 19.9102 68.9883C17.4023 70.0195 14.5781 70.5352 11.4375 70.5352C8.39062 70.5352 5.96484 70.0781 4.16016 69.1641C1.79297 67.9922 0.609375 66.2695 0.609375 63.9961C0.609375 62.5195 1.13672 61.3242 2.19141 60.4102C3.24609 59.5195 4.64062 59.0742 6.375 59.0742C8.0625 59.0742 9.39844 59.4844 10.3828 60.3047C11.3672 61.1484 11.8594 62.332 11.8594 63.8555C11.8594 64.9336 11.543 65.8945 10.9102 66.7383C10.2773 67.582 9.36328 68.2031 8.16797 68.6016C8.63672 68.9297 9.50391 69.0938 10.7695 69.0938C12.5273 69.0938 14.0391 68.625 15.3047 67.6875C16.5703 66.75 17.4844 65.4961 18.0469 63.9258C18.4688 62.6836 18.7734 61.3711 18.9609 59.9883C19.1719 58.6055 19.3008 56.9648 19.3477 55.0664C19.3945 53.168 19.418 50.332 19.418 46.5586V13.6523C19.418 11.8477 19.2773 10.5352 18.9961 9.71484C18.7383 8.89453 18.2344 8.33203 17.4844 8.02734C16.7578 7.72266 15.5977 7.53516 14.0039 7.46484V6.02344C16.3945 6.16406 20.0508 6.23438 24.9727 6.23438C29.8242 6.23438 33.5859 6.16406 36.2578 6.02344V7.46484ZM58.3711 26.625C58.3711 24.6328 57.8906 23.0625 56.9297 21.9141C55.9922 20.7656 54.5156 20.1914 52.5 20.1914C51.5625 20.1914 50.625 20.3438 49.6875 20.6484C48.75 20.9297 47.9766 21.3633 47.3672 21.9492C48.7031 22.3945 49.7461 23.0977 50.4961 24.0586C51.2461 24.9961 51.6211 26.1797 51.6211 27.6094C51.6211 28.5938 51.375 29.4844 50.8828 30.2812C50.4141 31.0547 49.7344 31.6758 48.8438 32.1445C47.9531 32.5898 46.9336 32.8125 45.7852 32.8125C44.2383 32.8125 42.9961 32.2852 42.0586 31.2305C41.1445 30.1758 40.6875 28.8516 40.6875 27.2578C40.6875 24.7734 42.0234 22.7578 44.6953 21.2109C47.625 19.5938 51.2812 18.7852 55.6641 18.7852C60.5859 18.7852 64.0898 19.8633 66.1758 22.0195C67.1836 23.0273 67.8633 24.2812 68.2148 25.7812C68.5664 27.2812 68.7422 29.3789 68.7422 32.0742V51.6562C68.7422 52.8281 68.8477 53.6602 69.0586 54.1523C69.293 54.6211 69.6914 54.8555 70.2539 54.8555C71.0273 54.8555 71.918 54.4453 72.9258 53.625L73.6641 54.8555C72.5625 55.7695 71.3672 56.4375 70.0781 56.8594C68.7891 57.2812 67.2422 57.4922 65.4375 57.4922C63 57.4922 61.2422 56.9531 60.1641 55.875C59.0859 54.7969 58.5469 53.3906 58.5469 51.6562C57.375 53.6016 55.8398 55.0664 53.9414 56.0508C52.043 57.0117 50.0156 57.4922 47.8594 57.4922C45.1172 57.4922 42.9141 56.7773 41.25 55.3477C39.6094 53.8945 38.7891 51.8789 38.7891 49.3008C38.7891 46.793 39.6094 44.7188 41.25 43.0781C42.8906 41.4375 45.4336 39.9844 48.8789 38.7188C49.2539 38.5781 50.4727 38.1211 52.5352 37.3477C54.5977 36.5508 56.0859 35.7422 57 34.9219C57.9141 34.1016 58.3711 33.1992 58.3711 32.2148V26.625ZM58.3711 35.168C58.0664 35.6836 57.5625 36.2227 56.8594 36.7852C56.1797 37.3242 55.1953 37.9922 53.9062 38.7891C52.3828 39.8438 51.1875 41.0391 50.3203 42.375C49.4531 43.6875 49.0195 45.3281 49.0195 47.2969C49.0195 49.1719 49.4297 50.5781 50.25 51.5156C51.0703 52.4297 52.1484 52.8867 53.4844 52.8867C55.3828 52.8867 57.0117 51.9023 58.3711 49.9336V35.168ZM112.371 51.7266C113.098 52.875 113.707 53.7305 114.199 54.293C114.691 54.832 115.324 55.2305 116.098 55.4883V57C112.254 56.8125 109.734 56.7188 108.539 56.7188C106.945 56.7188 103.852 56.8125 99.2578 57V55.4883C100.688 55.4883 101.402 55.0312 101.402 54.1172C101.402 53.8125 101.285 53.4492 101.051 53.0273L93.9141 40.1602C93.4453 39.3633 92.9414 38.8125 92.4023 38.5078C91.8867 38.1797 91.2188 37.9922 90.3984 37.9453V50.3203C90.3984 51.6562 90.5391 52.6992 90.8203 53.4492C91.1016 54.1992 91.5469 54.7266 92.1562 55.0312C92.7891 55.3359 93.6445 55.4883 94.7227 55.4883V57C89.9414 56.8125 86.8242 56.7188 85.3711 56.7188C83.707 56.7188 80.3906 56.8125 75.4219 57V55.4883C76.5703 55.4883 77.4727 55.3359 78.1289 55.0312C78.7852 54.7266 79.2656 54.1992 79.5703 53.4492C79.875 52.6992 80.0273 51.6562 80.0273 50.3203V9.25781C80.0273 7.03125 79.6758 5.42578 78.9727 4.44141C78.293 3.43359 77.1094 2.92969 75.4219 2.92969V1.41797C76.9453 1.55859 78.4336 1.62891 79.8867 1.62891C84.1055 1.62891 87.6094 1.28906 90.3984 0.609375V36.5039C91.3594 36.4102 92.1797 36.2344 92.8594 35.9766C93.5391 35.6953 94.1602 35.2617 94.7227 34.6758L100.172 29.3672C101.789 27.75 102.598 26.2852 102.598 24.9727C102.598 23.8711 102.07 22.9922 101.016 22.3359C99.9844 21.6562 98.6484 21.2812 97.0078 21.2109V19.7695C99.6797 19.9102 102.492 19.9805 105.445 19.9805C109.383 19.9805 112.195 19.9102 113.883 19.7695V21.2109C111.023 21.8438 108.023 23.6953 104.883 26.7656L100.277 31.5469L112.371 51.7266ZM128.121 34.7461C128.051 35.4492 128.016 36.5742 128.016 38.1211C128.016 41.3086 128.461 43.957 129.352 46.0664C130.242 48.1523 131.391 49.6875 132.797 50.6719C134.227 51.6328 135.75 52.1133 137.367 52.1133C141.328 52.1133 144.504 50.1914 146.895 46.3477L148.16 46.7695C147.551 48.7383 146.602 50.5781 145.312 52.2891C144.047 53.9766 142.43 55.3594 140.461 56.4375C138.516 57.4922 136.289 58.0195 133.781 58.0195C130.477 58.0195 127.57 57.3164 125.062 55.9102C122.578 54.5039 120.633 52.3711 119.227 49.5117C117.844 46.6289 117.152 43.0547 117.152 38.7891C117.152 34.4297 117.902 30.7617 119.402 27.7852C120.902 24.7852 122.977 22.5352 125.625 21.0352C128.273 19.5352 131.332 18.7852 134.801 18.7852C143.824 18.7852 148.336 24.1055 148.336 34.7461H128.121ZM139.266 33.375C139.336 29.625 138.949 26.5078 138.105 24.0234C137.285 21.5391 136.031 20.2969 134.344 20.2969C132.633 20.2969 131.203 21.3633 130.055 23.4961C128.93 25.6055 128.238 28.8984 127.98 33.375H139.266ZM170.027 6.02344C173.098 6.1875 175.992 6.26953 178.711 6.26953L180.961 6.23438C187.711 6.09375 191.473 6.02344 192.246 6.02344C201.621 6.02344 208.629 8.14453 213.27 12.3867C217.934 16.6289 220.266 22.8164 220.266 30.9492C220.266 36.1758 219.129 40.7578 216.855 44.6953C214.582 48.6094 211.289 51.6445 206.977 53.8008C202.664 55.9336 197.543 57 191.613 57C190.91 57 189.258 56.9648 186.656 56.8945C184.078 56.8242 182.227 56.7891 181.102 56.7891C176.156 56.7891 172.465 56.8594 170.027 57V55.5586C171.621 55.4883 172.781 55.3008 173.508 54.9961C174.234 54.6914 174.727 54.1289 174.984 53.3086C175.266 52.4883 175.406 51.1758 175.406 49.3711V13.6523C175.406 11.8477 175.266 10.5352 174.984 9.71484C174.727 8.89453 174.234 8.33203 173.508 8.02734C172.781 7.72266 171.621 7.53516 170.027 7.46484V6.02344ZM186.867 49.5117C186.867 51.2461 187.008 52.5469 187.289 53.4141C187.57 54.2578 188.086 54.8555 188.836 55.207C189.586 55.5352 190.723 55.6992 192.246 55.6992C196.207 55.6992 199.359 54.7734 201.703 52.9219C204.07 51.0469 205.758 48.3281 206.766 44.7656C207.797 41.1797 208.312 36.668 208.312 31.2305C208.312 25.7695 207.762 21.293 206.66 17.8008C205.582 14.2852 203.859 11.6602 201.492 9.92578C199.125 8.19141 196.02 7.32422 192.176 7.32422C190.676 7.32422 189.551 7.5 188.801 7.85156C188.074 8.17969 187.57 8.77734 187.289 9.64453C187.008 10.5117 186.867 11.8008 186.867 13.5117V49.5117ZM243.785 18.7852C249.27 18.7852 253.57 20.3555 256.688 23.4961C259.828 26.6367 261.398 31.6172 261.398 38.4375C261.398 45.2344 259.828 50.2031 256.688 53.3438C253.57 56.4609 249.27 58.0195 243.785 58.0195C238.301 58.0195 233.988 56.4609 230.848 53.3438C227.707 50.2031 226.137 45.2344 226.137 38.4375C226.137 31.6406 227.707 26.6719 230.848 23.5312C233.988 20.3672 238.301 18.7852 243.785 18.7852ZM243.785 20.1914C241.723 20.1914 240.07 21.6914 238.828 24.6914C237.609 27.6914 237 32.2734 237 38.4375C237 44.5781 237.609 49.1367 238.828 52.1133C240.07 55.0898 241.723 56.5781 243.785 56.5781C245.871 56.5781 247.512 55.1016 248.707 52.1484C249.926 49.1719 250.535 44.6016 250.535 38.4375C250.535 32.25 249.926 27.668 248.707 24.6914C247.512 21.6914 245.871 20.1914 243.785 20.1914ZM280.875 25.6758C281.789 23.6367 283.102 21.9844 284.812 20.7188C286.547 19.4297 288.504 18.7852 290.684 18.7852C292.137 18.7852 293.355 19.1016 294.34 19.7344C295.324 20.3672 296.051 21.1875 296.52 22.1953C296.988 23.1797 297.223 24.2461 297.223 25.3945C297.223 27.1758 296.707 28.6289 295.676 29.7539C294.645 30.8789 293.285 31.4414 291.598 31.4414C289.957 31.4414 288.656 31.0312 287.695 30.2109C286.758 29.3672 286.289 28.2422 286.289 26.8359C286.289 24.5391 287.344 22.6641 289.453 21.2109C289.148 21.1406 288.855 21.1055 288.574 21.1055C288.246 21.1055 287.871 21.1641 287.449 21.2812C286.23 21.4688 285.117 22.0547 284.109 23.0391C283.102 24 282.305 25.1602 281.719 26.5195C281.156 27.8789 280.875 29.2031 280.875 30.4922V49.582C280.875 51.8086 281.414 53.3555 282.492 54.2227C283.57 55.0664 285.293 55.4883 287.66 55.4883V57C281.66 56.8125 277.84 56.7188 276.199 56.7188C274.676 56.7188 271.242 56.8125 265.898 57V55.4883C267.047 55.4883 267.949 55.3359 268.605 55.0312C269.285 54.7266 269.766 54.1992 270.047 53.4492C270.352 52.6992 270.504 51.6562 270.504 50.3203V27.6094C270.504 25.3828 270.164 23.7773 269.484 22.793C268.805 21.7852 267.609 21.2812 265.898 21.2812V19.7695C267.422 19.9102 268.91 19.9805 270.363 19.9805C274.605 19.9805 278.109 19.6523 280.875 18.9961V25.6758ZM319.441 26.625C319.441 24.6328 318.961 23.0625 318 21.9141C317.062 20.7656 315.586 20.1914 313.57 20.1914C312.633 20.1914 311.695 20.3438 310.758 20.6484C309.82 20.9297 309.047 21.3633 308.438 21.9492C309.773 22.3945 310.816 23.0977 311.566 24.0586C312.316 24.9961 312.691 26.1797 312.691 27.6094C312.691 28.5938 312.445 29.4844 311.953 30.2812C311.484 31.0547 310.805 31.6758 309.914 32.1445C309.023 32.5898 308.004 32.8125 306.855 32.8125C305.309 32.8125 304.066 32.2852 303.129 31.2305C302.215 30.1758 301.758 28.8516 301.758 27.2578C301.758 24.7734 303.094 22.7578 305.766 21.2109C308.695 19.5938 312.352 18.7852 316.734 18.7852C321.656 18.7852 325.16 19.8633 327.246 22.0195C328.254 23.0273 328.934 24.2812 329.285 25.7812C329.637 27.2812 329.812 29.3789 329.812 32.0742V51.6562C329.812 52.8281 329.918 53.6602 330.129 54.1523C330.363 54.6211 330.762 54.8555 331.324 54.8555C332.098 54.8555 332.988 54.4453 333.996 53.625L334.734 54.8555C333.633 55.7695 332.438 56.4375 331.148 56.8594C329.859 57.2812 328.312 57.4922 326.508 57.4922C324.07 57.4922 322.312 56.9531 321.234 55.875C320.156 54.7969 319.617 53.3906 319.617 51.6562C318.445 53.6016 316.91 55.0664 315.012 56.0508C313.113 57.0117 311.086 57.4922 308.93 57.4922C306.188 57.4922 303.984 56.7773 302.32 55.3477C300.68 53.8945 299.859 51.8789 299.859 49.3008C299.859 46.793 300.68 44.7188 302.32 43.0781C303.961 41.4375 306.504 39.9844 309.949 38.7188C310.324 38.5781 311.543 38.1211 313.605 37.3477C315.668 36.5508 317.156 35.7422 318.07 34.9219C318.984 34.1016 319.441 33.1992 319.441 32.2148V26.625ZM319.441 35.168C319.137 35.6836 318.633 36.2227 317.93 36.7852C317.25 37.3242 316.266 37.9922 314.977 38.7891C313.453 39.8438 312.258 41.0391 311.391 42.375C310.523 43.6875 310.09 45.3281 310.09 47.2969C310.09 49.1719 310.5 50.5781 311.32 51.5156C312.141 52.4297 313.219 52.8867 314.555 52.8867C316.453 52.8867 318.082 51.9023 319.441 49.9336V35.168ZM351.82 25.4648C354 21.0117 357.938 18.7852 363.633 18.7852C365.602 18.7852 367.207 19.0195 368.449 19.4883C369.715 19.957 370.746 20.6484 371.543 21.5625C372.34 22.4766 372.914 23.6602 373.266 25.1133C373.617 26.5664 373.793 28.5117 373.793 30.9492V50.3203C373.793 51.6562 373.945 52.6992 374.25 53.4492C374.555 54.1992 375.035 54.7266 375.691 55.0312C376.348 55.3359 377.25 55.4883 378.398 55.4883V57C373.617 56.8125 370.453 56.7188 368.906 56.7188C367.43 56.7188 364.301 56.8125 359.52 57V55.4883C360.504 55.4883 361.277 55.3359 361.84 55.0312C362.402 54.7266 362.801 54.1992 363.035 53.4492C363.293 52.6992 363.422 51.6562 363.422 50.3203V27.9258C363.422 25.957 363.094 24.4688 362.438 23.4609C361.805 22.4531 360.645 21.9492 358.957 21.9492C357.645 21.9492 356.438 22.3125 355.336 23.0391C354.258 23.7656 353.402 24.7734 352.77 26.0625C352.137 27.3281 351.82 28.7344 351.82 30.2812V50.3203C351.82 51.6562 351.949 52.6992 352.207 53.4492C352.465 54.1992 352.875 54.7266 353.438 55.0312C354 55.3359 354.762 55.4883 355.723 55.4883V57C351.316 56.8125 348.34 56.7188 346.793 56.7188C345.316 56.7188 342 56.8125 336.844 57V55.4883C337.992 55.4883 338.895 55.3359 339.551 55.0312C340.23 54.7266 340.711 54.1992 340.992 53.4492C341.297 52.6992 341.449 51.6562 341.449 50.3203V27.6094C341.449 25.3828 341.109 23.7773 340.43 22.793C339.75 21.7852 338.555 21.2812 336.844 21.2812V19.7695C338.367 19.9102 339.855 19.9805 341.309 19.9805C345.551 19.9805 349.055 19.6523 351.82 18.9961V25.4648Z" fill="url(#paint0_linear)"/>
<defs>
<linearGradient id="paint0_linear" x1="48.5" y1="57" x2="344.5" y2="11.5" gradientUnits="userSpaceOnUse">
<stop stop-color="#F0DC9C"/>
<stop offset="1" stop-color="#AF906B"/>
</linearGradient>
</defs>
</svg>
